<svg xmlns="http://www.w3.org/2000/svg" shape-rendering="geometricPrecision" text-rendering="geometricPrecision" image-rendering="optimizeQuality" fill-rule="evenodd" clip-rule="evenodd" viewBox="0 0 512 469.87"><path fill-rule="nonzero" d="M232.21 0c31.37 0 61.4 6.28 88.81 17.64l.91.41c28.01 11.76 53.25 28.86 74.38 49.99 21.48 21.5 38.73 47.06 50.47 75.38 11.36 27.41 17.63 57.44 17.63 88.79 0 7.72-.37 15.35-1.12 22.88a124.045 124.045 0 0 0-34-10.09c.27-4.23.41-8.49.41-12.79 0-26.81-5.3-52.32-14.92-75.51a197.897 197.897 0 0 0-42.88-64.13c-18.04-18.07-39.49-32.62-63.3-42.61l-.87-.33c-23.18-9.61-48.69-14.92-75.52-14.92s-52.34 5.31-75.53 14.92c-24.19 9.99-45.92 24.67-64.11 42.88-18.07 18.05-32.62 39.5-42.61 63.3l-.33.87c-9.61 23.19-14.92 48.7-14.92 75.53s5.31 52.34 14.92 75.53a196.045 196.045 0 0 0 29.89 49.79c0-.78.13-1.46.4-2.03 4.45-9.31 11.73-17.9 24.42-25.85 17.96-11.28 53.85-20.34 77.6-29.55-12.6 13.66-23.44 28.19-31.97 45.34l24.73-.61 55.53 44.35 57.79-43.99c-1.46 7.66-2.23 15.58-2.23 23.67 0 30.56 10.96 58.58 29.17 80.32-25.75 9.84-53.69 15.23-82.75 15.23-31.36 0-61.4-6.27-88.81-17.63l-.92-.41c-28.02-11.76-53.25-28.86-74.38-50-21.43-21.43-38.67-46.99-50.44-75.36C6.28 293.61 0 263.58 0 232.21c0-31.38 6.28-61.41 17.64-88.81l.41-.92c11.76-28.02 28.86-53.25 49.99-74.38 21.44-21.43 46.98-38.67 75.37-50.44C170.8 6.28 200.83 0 232.21 0zm163.25 328.32c-.04-4.57-.46-7.85 5.22-7.77l18.42.22c5.94-.03 7.52 1.85 7.45 7.41v25.14h24.98c4.58-.04 7.86-.47 7.77 5.22l-.23 18.42c.04 5.94-1.84 7.52-7.41 7.45h-25.11v25.11c.07 5.56-1.51 7.45-7.45 7.42l-18.42.22c-5.68.08-5.26-3.2-5.22-7.78v-24.97h-25.13c-5.57.07-7.46-1.51-7.42-7.45l-.21-18.42c-.1-5.69 3.18-5.26 7.76-5.22h25v-25zm15.53-60.46c27.89 0 53.15 11.31 71.42 29.58l.45.48c18.01 18.25 29.14 43.34 29.14 70.94 0 27.9-11.31 53.16-29.59 71.43-18.27 18.27-43.53 29.58-71.42 29.58-27.87 0-53.13-11.31-71.4-29.6-18.29-18.25-29.61-43.51-29.61-71.41 0-27.86 11.32-53.12 29.61-71.4 18.25-18.29 43.52-29.6 71.4-29.6zm60.63 40.38c-15.51-15.51-36.95-25.11-60.63-25.11-23.67 0-45.12 9.6-60.62 25.11-15.52 15.47-25.11 36.92-25.11 60.62 0 23.68 9.6 45.12 25.11 60.63 15.47 15.52 36.91 25.11 60.62 25.11 23.68 0 45.12-9.6 60.63-25.11 15.5-15.51 25.11-36.95 25.11-60.63 0-23.49-9.43-44.79-24.69-60.22l-.42-.4zm-279.83-23.89v14.63l-14.71 24.71 55.09 43.47 55.15-43.86-19.28-25.75v-12.04c33.9-2.58 63.46-9.48 75.58-21.08-10.92-5.25-17.91-14.24-21.92-25.97-9.34-27.29-.48-53.36-4.67-82.98-5.58-39.66-31.51-52.93-57.23-50.19-32.82-26.96-91.69-11.21-107.62 34.88-8.05 23.27-3.15 38.14-4.02 61.73-1.14 31.72-9.41 52.93-27.37 59.7 9.63 11.46 37.69 19.15 71 22.75zm104.66 33.92c-4.71-6.32-9.78-12.33-15.18-18.17 6.23 2.41 13.29 4.82 20.66 7.26a126.31 126.31 0 0 0-5.48 10.91z"/></svg>